<?xml version="1.0" encoding="UTF-8"?>
<!DOCTYPE svg PUBLIC "-//W3C//DTD SVG 1.1//EN" "http://www.w3.org/Graphics/SVG/1.1/DTD/svg11.dtd">
<!-- Creator: CorelDRAW X8 -->
<svg xmlns="http://www.w3.org/2000/svg" xml:space="preserve" width="6.84799cm" height="5cm" version="1.1" style="shape-rendering:geometricPrecision; text-rendering:geometricPrecision; image-rendering:optimizeQuality; fill-rule:evenodd; clip-rule:evenodd"
viewBox="0 0 2226 1625"
 xmlns:xlink="http://www.w3.org/1999/xlink">
 <defs>
  <style type="text/css">
   <![CDATA[
    .fil1 {fill:#FEFEFE}
    .fil0 {fill:black;fill-rule:nonzero}
   ]]>
  </style>
 </defs>
 <g id="Capa_x0020_1">
  <metadata id="CorelCorpID_0Corel-Layer"/>
  <g id="_599035016">
   <path class="fil0" d="M1602 352c11,-11 57,-57 -22,-136 -72,-72 -84,-84 -85,-85 -1,0 -1,0 -1,0 -1,-2 -13,-14 -85,-86 -79,-78 -124,-33 -135,-22 -11,11 -134,123 -199,205 -65,81 -92,163 -90,206 1,42 19,66 12,117 -7,51 -55,105 -70,120 -15,15 -238,238 -295,294 -56,57 -56,68 -98,87 -41,20 -65,27 -76,38 -11,11 -410,388 -444,427 -34,38 4,74 4,74l8 8 0 1 8 8c0,0 36,37 75,3 38,-34 416,-433 427,-444 11,-11 18,-35 37,-76 19,-41 30,-41 87,-98 57,-57 279,-279 294,-294 15,-16 69,-64 120,-71 52,-7 75,11 118,13 43,1 124,-25 206,-90 81,-65 193,-188 204,-199zm-482 -30l0 0c-5,-4 -5,-12 0,-19l163 -246c4,-7 19,-6 24,-2 5,4 12,17 7,24l-176 237c-4,7 -13,10 -18,6zm0 96l0 0c-6,-5 -5,-16 2,-24l226 -285c7,-8 25,-4 31,1 6,5 12,22 5,30l-240 272c-7,8 -18,11 -24,6zm39 67l0 0c-9,9 -20,10 -26,4 -6,-6 -5,-17 4,-26l276 -290c8,-8 27,-3 33,3 6,6 12,25 3,33l-290 276zm75 21l0 0c-8,7 -19,8 -24,2 -5,-6 -2,-17 6,-24l272 -240c8,-7 25,-1 30,5 5,6 9,24 1,31l-285 226zm337 -161l0 0 -246 163c-7,5 -15,5 -19,0 -4,-5 -1,-14 6,-18l237 -176c7,-5 20,2 24,7 4,5 5,20 -2,24z"/>
   <rect class="fil1" x="2112" width="114" height="1625"/>
  </g>
 </g>
</svg>
